<svg version="1.1" id="Layer_1" xmlns="http://www.w3.org/2000/svg" xmlns:xlink="http://www.w3.org/1999/xlink" x="0px" y="0px"
	 width="100%" viewBox="0 0 1090 698" enable-background="new 0 0 1090 698" xml:space="preserve">
<path fill="#FEFEFF" opacity="1.000000" stroke="none" 
	d="
M721.000000,699.000000 
	C480.666687,699.000000 240.833359,699.000000 1.000032,699.000000 
	C1.000021,466.333374 1.000021,233.666718 1.000011,1.000063 
	C364.333282,1.000042 727.666565,1.000042 1091.000000,1.000021 
	C1091.000000,233.666611 1091.000000,466.333221 1091.000000,698.999878 
	C967.833313,699.000000 844.666687,699.000000 721.000000,699.000000 
M293.500061,24.649029 
	C245.337921,24.650944 197.175140,24.498083 149.013809,24.696226 
	C95.764954,24.915298 53.819378,66.779747 53.771988,119.999985 
	C53.637985,270.486938 53.635765,420.974182 53.772995,571.461121 
	C53.821571,624.730225 96.252625,666.880920 149.552490,666.891785 
	C403.863983,666.943542 658.175476,666.923706 912.486938,666.856079 
	C917.955811,666.854614 923.513916,666.447327 928.879150,665.430908 
	C976.789185,656.353638 1008.233643,618.264954 1008.271118,569.421875 
	C1008.308167,521.092712 1008.279846,472.763519 1008.279724,424.434357 
	C1008.279419,323.443024 1008.228638,222.451660 1008.324280,121.460419 
	C1008.341736,102.989098 1004.167542,85.714432 994.219360,70.181580 
	C974.829956,39.907402 946.942078,24.670479 910.947083,24.664967 
	C705.464722,24.633501 499.982391,24.649118 293.500061,24.649029 
z"/>
<path fill="#2664EB" opacity="1.000000" stroke="none" 
	d="
M294.000061,24.648884 
	C499.982391,24.649118 705.464722,24.633501 910.947083,24.664967 
	C946.942078,24.670479 974.829956,39.907402 994.219360,70.181580 
	C1004.167542,85.714432 1008.341736,102.989098 1008.324280,121.460419 
	C1008.228638,222.451660 1008.279419,323.443024 1008.279724,424.434357 
	C1008.279846,472.763519 1008.308167,521.092712 1008.271118,569.421875 
	C1008.233643,618.264954 976.789185,656.353638 928.879150,665.430908 
	C923.513916,666.447327 917.955811,666.854614 912.486938,666.856079 
	C658.175476,666.923706 403.863983,666.943542 149.552490,666.891785 
	C96.252625,666.880920 53.821571,624.730225 53.772995,571.461121 
	C53.635765,420.974182 53.637985,270.486938 53.771988,119.999985 
	C53.819378,66.779747 95.764954,24.915298 149.013809,24.696226 
	C197.175140,24.498083 245.337921,24.650944 294.000061,24.648884 
M313.500031,76.739738 
	C259.174225,76.740257 204.848358,76.709930 150.522583,76.754593 
	C124.272873,76.776169 105.817177,95.181831 105.812431,121.393127 
	C105.785316,271.040283 105.785027,420.687439 105.819122,570.334595 
	C105.824974,596.012634 124.645638,614.839600 150.327225,614.842285 
	C404.127472,614.868591 657.927734,614.869263 911.727966,614.841187 
	C937.377869,614.838318 956.175903,595.995605 956.182007,570.279541 
	C956.217773,420.465729 956.213074,270.651917 956.122620,120.838158 
	C956.119934,116.403206 955.571289,111.807846 954.334351,107.561989 
	C948.738770,88.355957 932.220947,76.747910 910.922302,76.746773 
	C712.114868,76.736137 513.307495,76.739944 313.500031,76.739738 
z"/>
<path fill="#FFFFFF" opacity="1.000000" stroke="none" 
	d="
M314.000061,76.739655 
	C513.307495,76.739944 712.114868,76.736137 910.922302,76.746773 
	C932.220947,76.747910 948.738770,88.355957 954.334351,107.561989 
	C955.571289,111.807846 956.119934,116.403206 956.122620,120.838158 
	C956.213074,270.651917 956.217773,420.465729 956.182007,570.279541 
	C956.175903,595.995605 937.377869,614.838318 911.727966,614.841187 
	C657.927734,614.869263 404.127472,614.868591 150.327225,614.842285 
	C124.645638,614.839600 105.824974,596.012634 105.819122,570.334595 
	C105.785027,420.687439 105.785316,271.040283 105.812431,121.393127 
	C105.817177,95.181831 124.272873,76.776169 150.522583,76.754593 
	C204.848358,76.709930 259.174225,76.740257 314.000061,76.739655 
M384.858490,503.350403 
	C425.994659,475.925751 467.123535,448.490204 508.275391,421.089142 
	C513.952393,417.309082 518.708008,412.811066 520.903137,406.139282 
	C524.790283,394.325073 520.431580,382.602325 509.102264,375.018799 
	C482.957947,357.518524 456.748474,340.115601 430.568237,322.668945 
	C405.634216,306.052734 380.750458,289.360382 355.752716,272.840637 
	C342.611542,264.156281 326.807098,266.863708 318.662994,278.887299 
	C310.029053,291.634064 313.600861,307.295868 327.391876,316.506378 
	C366.545044,342.655396 405.736969,368.746490 444.911438,394.863678 
	C446.204987,395.726044 447.474640,396.624237 449.169220,397.790527 
	C445.773499,400.092072 442.916962,402.055634 440.033325,403.978546 
	C402.430786,429.053528 364.818085,454.113251 327.223328,479.199860 
	C317.509979,485.681488 312.387207,494.593628 314.545715,506.392151 
	C318.042999,525.508545 338.343567,533.796875 355.147125,523.103638 
	C364.975769,516.849060 374.578003,510.238647 384.858490,503.350403 
M684.500122,484.537445 
	C671.339844,484.537384 658.179504,484.536072 645.019226,484.537567 
	C621.697144,484.540222 598.373169,484.366425 575.053650,484.611298 
	C559.674500,484.772766 548.345764,496.019867 548.267212,510.495850 
	C548.188843,524.946594 559.736206,536.666748 574.801819,536.706543 
	C626.609863,536.843384 678.418640,536.825867 730.226746,536.703125 
	C740.706726,536.678284 748.856506,531.917664 753.765991,522.495300 
	C762.897583,504.969757 750.454773,485.037750 729.977356,484.608063 
	C715.157654,484.297058 700.326294,484.541351 684.500122,484.537445 
z"/>
<path fill="#2664EB" opacity="1.000000" stroke="none" 
	d="
M384.570282,503.569336 
	C374.578003,510.238647 364.975769,516.849060 355.147125,523.103638 
	C338.343567,533.796875 318.042999,525.508545 314.545715,506.392151 
	C312.387207,494.593628 317.509979,485.681488 327.223328,479.199860 
	C364.818085,454.113251 402.430786,429.053528 440.033325,403.978546 
	C442.916962,402.055634 445.773499,400.092072 449.169220,397.790527 
	C447.474640,396.624237 446.204987,395.726044 444.911438,394.863678 
	C405.736969,368.746490 366.545044,342.655396 327.391876,316.506378 
	C313.600861,307.295868 310.029053,291.634064 318.662994,278.887299 
	C326.807098,266.863708 342.611542,264.156281 355.752716,272.840637 
	C380.750458,289.360382 405.634216,306.052734 430.568237,322.668945 
	C456.748474,340.115601 482.957947,357.518524 509.102264,375.018799 
	C520.431580,382.602325 524.790283,394.325073 520.903137,406.139282 
	C518.708008,412.811066 513.952393,417.309082 508.275391,421.089142 
	C467.123535,448.490204 425.994659,475.925751 384.570282,503.569336 
z"/>
<path fill="#2764EB" opacity="1.000000" stroke="none" 
	d="
M685.000122,484.537720 
	C700.326294,484.541351 715.157654,484.297058 729.977356,484.608063 
	C750.454773,485.037750 762.897583,504.969757 753.765991,522.495300 
	C748.856506,531.917664 740.706726,536.678284 730.226746,536.703125 
	C678.418640,536.825867 626.609863,536.843384 574.801819,536.706543 
	C559.736206,536.666748 548.188843,524.946594 548.267212,510.495850 
	C548.345764,496.019867 559.674500,484.772766 575.053650,484.611298 
	C598.373169,484.366425 621.697144,484.540222 645.019226,484.537567 
	C658.179504,484.536072 671.339844,484.537384 685.000122,484.537720 
z"/>
</svg>