<?xml version="1.0" standalone="no"?>
<!DOCTYPE svg PUBLIC "-//W3C//DTD SVG 20010904//EN"
 "http://www.w3.org/TR/2001/REC-SVG-20010904/DTD/svg10.dtd">
<svg version="1.0" xmlns="http://www.w3.org/2000/svg"
 width="1024.000000pt" height="1024.000000pt" viewBox="0 0 1024.000000 1024.000000"
 preserveAspectRatio="xMidYMid meet">

<g transform="translate(0.000000,1024.000000) scale(0.100000,-0.100000)"
fill="#000000" stroke="none">
<path d="M2100 6664 c-315 -199 -564 -270 -1080 -308 -81 -6 -99 -13 -106 -40
-3 -12 -3 -325 -1 -696 3 -651 4 -678 24 -755 91 -341 225 -565 485 -809 168
-159 355 -280 631 -410 173 -82 138 -85 372 30 269 132 450 259 646 454 228
227 358 457 421 741 23 103 23 111 23 777 l0 674 -24 19 c-17 14 -39 19 -90
19 -220 1 -534 59 -738 135 -87 33 -270 129 -359 189 -38 25 -76 46 -84 46 -8
0 -62 -30 -120 -66z m297 -258 c243 -122 556 -206 856 -231 l78 -7 -3 -596 -4
-597 -26 -98 c-15 -54 -50 -146 -77 -203 -166 -347 -417 -584 -850 -803 l-163
-83 -132 66 c-261 130 -416 237 -582 402 -195 195 -312 400 -377 664 -19 80
-21 119 -24 668 l-4 582 40 0 c23 0 107 9 188 21 313 44 619 146 832 277 l65
40 37 -24 c21 -13 86 -48 146 -78z"/>
<path d="M2116 6104 c-174 -42 -328 -192 -365 -355 -6 -24 -11 -104 -11 -176
l0 -133 -37 0 c-54 -1 -119 -33 -143 -72 -19 -32 -20 -50 -20 -419 0 -385 0
-386 23 -430 13 -24 43 -59 66 -76 81 -62 98 -64 612 -61 447 3 466 4 509 24
25 11 60 36 77 54 63 65 64 73 61 507 l-3 391 -25 27 c-31 34 -79 55 -125 55
l-35 0 0 98 c-1 146 -16 238 -50 308 -100 204 -320 310 -534 258z m222 -208
c59 -31 115 -88 141 -146 17 -38 21 -66 21 -177 l0 -133 -285 0 -285 0 0 128
c0 115 3 132 26 182 72 155 239 219 382 146z m-58 -771 c39 -20 60 -63 60
-124 0 -44 -5 -56 -36 -90 l-35 -40 14 -103 c8 -57 12 -106 10 -110 -2 -5 -40
-8 -84 -8 -91 0 -85 -12 -65 127 l13 93 -25 22 c-71 67 -68 185 6 230 34 22
104 23 142 3z"/>
<path d="M5525 6418 c-3 -7 -4 -254 -3 -548 l3 -535 90 0 90 0 5 48 5 49 23
-31 c38 -52 95 -75 187 -75 93 0 165 27 232 88 99 89 138 304 87 480 -44 155
-158 234 -324 224 -61 -4 -87 -10 -123 -32 -26 -14 -51 -35 -57 -46 -6 -11
-14 -20 -18 -20 -4 0 -7 91 -7 203 l0 202 -93 3 c-68 2 -94 -1 -97 -10z m410
-469 c88 -24 125 -90 125 -224 0 -66 -5 -101 -19 -130 -49 -108 -178 -136
-271 -59 -23 20 -32 41 -46 101 -36 161 14 297 116 316 43 8 54 7 95 -4z"/>
<path d="M7185 6418 c-3 -7 -4 -254 -3 -548 l3 -535 95 0 95 0 0 545 0 545
-93 3 c-68 2 -94 -1 -97 -10z"/>
<path d="M7600 6210 l0 -100 -60 0 -60 0 0 -80 0 -80 60 0 60 0 0 -218 c0
-258 8 -300 69 -355 48 -43 75 -49 206 -45 l100 3 3 78 3 77 -65 0 c-54 0 -70
4 -93 24 l-28 24 -3 206 -3 205 93 3 93 3 3 78 3 77 -96 0 -95 0 0 100 0 100
-95 0 -95 0 0 -100z"/>
<path d="M4133 6102 c-142 -51 -213 -147 -234 -315 -34 -282 135 -483 392
-465 81 6 161 41 221 97 45 41 98 133 98 170 0 22 -20 28 -127 34 -63 3 -63 3
-73 -28 -19 -57 -86 -105 -146 -105 -46 0 -102 37 -131 87 -26 44 -28 57 -28
148 0 91 3 104 27 146 34 58 82 83 146 76 56 -6 91 -32 117 -84 l20 -41 65 4
c124 9 133 12 125 41 -23 93 -95 181 -180 223 -69 33 -216 39 -292 12z"/>
<path d="M4944 6111 c-49 -12 -133 -62 -165 -98 -71 -82 -105 -199 -97 -337 7
-111 41 -187 114 -256 70 -66 127 -91 224 -97 192 -14 341 94 384 277 46 196
-14 376 -154 465 -76 48 -212 68 -306 46z m175 -176 c66 -34 101 -104 101
-206 0 -167 -92 -264 -218 -229 -83 22 -128 118 -121 256 8 124 65 194 161
194 27 0 62 -7 77 -15z"/>
<path d="M6569 6104 c-25 -7 -66 -32 -92 -54 -42 -37 -97 -126 -97 -157 0 -10
25 -13 103 -13 96 0 103 1 112 22 15 34 73 68 114 68 81 0 128 -51 130 -142
l1 -36 -107 -7 c-292 -17 -391 -84 -381 -255 5 -90 36 -138 115 -177 51 -25
69 -28 148 -28 101 1 152 20 198 75 24 28 45 42 32 20 -4 -6 -4 -29 0 -51 l7
-40 91 3 92 3 0 295 c0 289 0 296 -23 342 -30 61 -88 110 -153 131 -64 21
-225 22 -290 1z m271 -468 c0 -19 -4 -46 -9 -59 -21 -56 -106 -106 -178 -107
-77 0 -126 68 -93 130 14 26 87 51 177 60 43 4 84 8 91 9 7 0 12 -12 12 -33z"/>
<path d="M8283 6102 c-121 -43 -191 -125 -223 -261 -18 -77 -8 -231 19 -303
29 -76 99 -149 176 -184 52 -24 73 -28 160 -28 88 -1 107 2 157 26 155 73 228
212 216 413 -10 149 -77 259 -196 317 -58 29 -77 33 -161 35 -74 3 -108 -1
-148 -15z m230 -177 c46 -34 77 -109 77 -188 0 -143 -42 -217 -134 -238 -51
-11 -58 -10 -103 12 -63 31 -94 91 -101 193 -7 114 21 183 92 228 40 25 129
21 169 -7z"/>
<path d="M8880 5750 l0 -80 209 0 c162 0 210 3 214 13 3 7 4 42 3 77 l-1 65
-212 3 -213 2 0 -80z"/>
<path d="M8645 5108 c-3 -7 -4 -242 -3 -523 l3 -510 95 0 95 0 5 255 c6 283 7
290 73 330 63 39 165 17 199 -42 9 -17 14 -94 18 -283 l5 -260 95 0 95 0 3
235 c3 310 -10 390 -81 469 -84 93 -275 93 -368 0 -21 -21 -40 -39 -41 -39 -2
0 -2 85 0 190 l3 190 -96 0 c-67 0 -97 -4 -100 -12z"/>
<path d="M6610 4930 l0 -100 -60 0 -60 0 0 -80 0 -80 60 0 60 0 0 -222 c0
-214 1 -225 24 -274 41 -88 110 -120 244 -111 46 3 88 9 93 14 6 6 9 41 7 79
l-3 69 -66 3 c-104 5 -103 3 -107 243 l-3 198 88 3 88 3 3 78 3 77 -91 0 -90
0 0 100 0 100 -95 0 -95 0 0 -100z"/>
<path d="M4097 4840 c-57 -15 -90 -35 -130 -79 -43 -48 -52 -75 -52 -157 0
-120 67 -176 267 -225 96 -23 128 -35 146 -55 28 -32 28 -46 -2 -81 -22 -25
-30 -28 -89 -28 -75 0 -111 19 -139 75 l-17 33 -88 -2 c-48 -1 -91 -6 -96 -10
-15 -15 25 -113 64 -156 61 -66 115 -87 235 -93 152 -7 238 24 308 111 28 35
31 47 34 115 2 66 -1 83 -20 117 -34 59 -105 96 -242 129 -64 15 -127 37 -141
48 -57 45 -13 118 71 118 61 0 91 -15 115 -55 l21 -35 94 0 c106 0 110 3 79
77 -46 110 -124 155 -280 159 -55 2 -117 -1 -138 -6z"/>
<path d="M4863 4836 c-164 -54 -257 -222 -240 -432 10 -111 40 -178 112 -251
74 -74 126 -93 256 -93 110 0 179 24 247 85 46 42 70 78 87 133 6 22 5 22 -93
22 -92 0 -99 -2 -111 -22 -35 -64 -148 -90 -214 -49 -36 22 -68 78 -82 139 -5
27 -4 32 12 33 10 1 124 4 253 8 l235 6 -1 85 c-2 151 -72 271 -186 320 -66
29 -211 37 -275 16z m223 -178 c29 -32 54 -101 42 -114 -3 -2 -73 -7 -156 -11
l-151 -6 9 36 c10 48 40 94 76 118 23 16 41 19 88 16 53 -3 62 -7 92 -39z"/>
<path d="M5673 4836 c-107 -35 -186 -107 -225 -205 -18 -47 -22 -77 -22 -181
-1 -117 1 -129 28 -187 33 -73 104 -144 174 -176 66 -29 208 -35 287 -12 80
23 172 113 204 199 12 33 18 62 14 66 -4 4 -49 10 -99 14 -91 6 -92 6 -98 -19
-18 -72 -111 -125 -186 -105 -93 25 -136 109 -128 249 8 132 53 191 152 199
70 6 116 -20 146 -82 l21 -44 82 5 c45 2 88 6 95 8 19 7 14 35 -16 100 -33 68
-93 127 -161 158 -58 26 -206 33 -268 13z"/>
<path d="M7278 4836 c-104 -37 -167 -100 -212 -210 -31 -76 -30 -278 2 -357
30 -76 90 -142 160 -176 48 -23 72 -28 157 -31 84 -3 108 -1 154 18 95 37 166
111 186 193 l7 27 -95 0 c-90 0 -95 -1 -111 -25 -41 -62 -139 -84 -202 -46
-40 24 -74 80 -81 131 -3 22 -4 41 -2 41 2 1 114 5 249 8 l245 6 -1 71 c-3
177 -89 308 -227 349 -62 18 -179 19 -229 1z m203 -163 c34 -29 59 -78 59
-115 0 -23 -2 -23 -150 -26 -140 -4 -150 -3 -150 15 1 33 37 98 69 126 46 39
126 39 172 0z"/>
<path d="M8073 4836 c-173 -56 -262 -223 -242 -453 12 -131 72 -225 181 -283
53 -29 76 -35 147 -38 46 -3 107 1 137 7 60 14 140 68 179 122 31 41 69 139
58 150 -4 4 -47 9 -95 11 l-88 3 -22 -45 c-30 -58 -97 -95 -156 -85 -83 14
-122 59 -143 167 -21 109 21 241 85 272 82 39 174 8 210 -71 l20 -42 85 6 c48
3 90 9 95 14 6 5 3 30 -8 63 -22 73 -97 155 -168 186 -65 29 -210 37 -275 16z"/>
<path d="M6275 4306 c-43 -19 -65 -57 -65 -112 0 -39 5 -51 33 -79 59 -59 135
-59 194 0 28 28 33 40 33 82 0 29 -7 58 -16 72 -33 46 -118 64 -179 37z"/>
</g>
</svg>
